<svg data-v-6805eed4="" version="1.0" xmlns="http://www.w3.org/2000/svg" xmlns:xlink="http://www.w3.org/1999/xlink"
    width="100%" height="100%" viewBox="0 0 340.000000 250.000000" preserveAspectRatio="xMidYMid meet"
    color-interpolation-filters="sRGB" style="margin: auto;"><g data-v-6805eed4="" class="iconmbgsvg" transform="translate(101.25,58.284812927246094)">
        <g fill="#333" hollow-target="textFill" mask="url(#d126b359-b8ec-450a-bd35-d4e7c1c67afd)">
            <g>
                <g>
                    <rect fill="#333" fill-opacity="0" stroke-width="2" x="0" y="0" width="137.5"
                        height="133.4303736050461" class="image-rect"></rect> <svg x="0" y="0" width="137.5"
                        height="133.4303736050461" filtersec="colorsb1215389973" class="image-svg-svg primary"
                        style="overflow: visible;"><svg xmlns="http://www.w3.org/2000/svg"
                            viewBox="0 0 277.739990234375 269.5199890136719">
                            <title>资源 21</title>
                            <circle cx="119.15" cy="150.37" r="119.15" fill="#bc82b8" opacity=".6"></circle>
                            <circle cx="158.59" cy="129" r="119.15" fill="#8b00a3" opacity=".6"></circle>
                            <circle cx="119.15" cy="119.15" r="119.15" fill="#1080db" opacity=".6"></circle>
                        </svg></svg> <!---->
                </g>
            </g>
            <g transform="translate(38.14500045776367,35.39018630981445)">
                <g data-gra="path-name" fill-rule="" class="tp-name">
                    <g transform="scale(1)">
                        <g>
                            <path
                                d="M19.47-29.64L11.41-29.64 11.41-24.3 19.47-24.3 19.47-29.64ZM11.41-22.51L11.41-16.86 19.47-16.86 19.47-22.51 11.41-22.51ZM16.55-12.21L16.55-12.21 17.24-12.52Q24.12-9.24 25.36-4.53L25.36-4.53Q26.16-1.43 24.18 0.25L24.18 0.25Q22.32 1.86 20.09 0.06L20.09 0.06Q19.84-0.12 19.59-0.37L19.59-0.37Q19.59-2.54 19.1-5.02L19.1-5.02Q14.07-0.74 8.49 3.47L8.49 3.47Q7.75 4.9 6.51 5.58L6.51 5.58 2.85-1.49Q4.22-2.23 4.65-2.85 5.08-3.47 5.08-4.46L5.08-4.46 5.08-32.86Q3.66-31.56 1.92-30.19L1.92-30.19 1.36-30.63Q4.03-34.84 6.32-41.42 8.62-47.99 9.49-53.07L9.49-53.07 19.65-51.03Q19.34-49.79 17.24-49.6L17.24-49.6Q26.35-46.69 27.9-42.22L27.9-42.22Q28.77-39.68 26.85-38.13L26.85-38.13Q24.92-36.58 22.69-37.94L22.69-37.94Q22.32-38.13 22.01-38.44L22.01-38.44Q20.52-43.65 16.68-48.42L16.68-48.42Q14.07-42.97 9.86-37.88L9.86-37.88 23.31-37.88 23.31-36.08 9.61-36.08 9.3-37.2Q7.44-35.03 5.95-33.6L5.95-33.6 11.66-31.37 25.73-31.37 25.73-15Q25.67-14.57 23.81-13.89L23.81-13.89Q21.95-13.27 20.52-13.27L20.52-13.27 19.47-13.27 19.47-15.13 11.41-15.13 11.41-3.97Q13.64-4.71 18.72-6.45L18.72-6.45Q17.67-9.86 16.55-12.21ZM49.66-30.44L49.66-30.44 39.87-30.44Q41.48-20.96 45.51-14.45L45.51-14.45Q48.48-21.51 49.66-30.44ZM36.33-32.18L57.16-32.18 57.16-29.2Q54.81-17.05 49.41-9.36L49.41-9.36Q53.94-4.84 60.33-2.17L60.33-2.17 60.2-1.36Q55.06 0.74 54.37 5.39L54.37 5.39Q48.79 1.43 45.51-4.59L45.51-4.59Q38.75 2.11 28.52 5.52L28.52 5.52 28.09 4.77Q37.57-0.37 43.03-9.61L43.03-9.61Q39.68-18.17 38.56-30.44L38.56-30.44 36.33-30.44 36.33-29.57Q36.33-25.42 36.21-22.44L36.21-22.44Q36.08-19.53 35.4-15.25L35.4-15.25Q34.78-10.97 33.54-7.69L33.54-7.69Q32.36-4.4 30.07-0.81L30.07-0.81Q27.84 2.79 24.61 5.58L24.61 5.58 23.87 5.08Q27.53-1.74 28.58-10.04L28.58-10.04Q29.7-18.35 29.7-29.57L29.7-29.57 29.7-49.41 37.39-46.62 60.57-46.62 60.57-44.83 36.33-44.83 36.33-32.18Z"
                                transform="translate(-1.3600000143051147, 53.06999969482422)"></path>
                        </g> <!----> <!----> <!----> <!----> <!----> <!----> <!---->
                    </g>
                </g> <!---->
            </g>
        </g>
    </g>
    <defs v-gra="od"></defs>
    <mask id="d126b359-b8ec-450a-bd35-d4e7c1c67afd">
        <g fill="white">
            <g>
                <rect fill-opacity="0" stroke-width="2" x="0" y="0" width="137.5" height="133.4303736050461"
                    class="image-rect"></rect> <svg x="0" y="0" width="137.5" height="133.4303736050461"
                    filtersec="colorsb1215389973" class="image-svg-svg primary" style="overflow: visible;"><svg
                        xmlns="http://www.w3.org/2000/svg" viewBox="0 0 277.739990234375 269.5199890136719">
                        <title>资源 21</title>
                        <circle cx="119.15" cy="150.37" r="119.15" opacity=".6"></circle>
                        <circle cx="158.59" cy="129" r="119.15" opacity=".6"></circle>
                        <circle cx="119.15" cy="119.15" r="119.15" opacity=".6"></circle>
                    </svg></svg>
            </g>
        </g>
        <g transform="translate(38.14500045776367,35.39018630981445)" fill="black">
            <g data-gra="path-name" fill-rule="" class="tp-name">
                <g transform="scale(1)">
                    <g>
                        <path
                            d="M19.47-29.64L11.41-29.64 11.41-24.3 19.47-24.3 19.47-29.64ZM11.41-22.51L11.41-16.86 19.47-16.86 19.47-22.51 11.41-22.51ZM16.55-12.21L16.55-12.21 17.24-12.52Q24.12-9.24 25.36-4.53L25.36-4.53Q26.16-1.43 24.18 0.25L24.18 0.25Q22.32 1.86 20.09 0.06L20.09 0.06Q19.84-0.12 19.59-0.37L19.59-0.37Q19.59-2.54 19.1-5.02L19.1-5.02Q14.07-0.74 8.49 3.47L8.49 3.47Q7.75 4.9 6.51 5.58L6.51 5.58 2.85-1.49Q4.22-2.23 4.65-2.85 5.08-3.47 5.08-4.46L5.08-4.46 5.08-32.86Q3.66-31.56 1.92-30.19L1.92-30.19 1.36-30.63Q4.03-34.84 6.32-41.42 8.62-47.99 9.49-53.07L9.49-53.07 19.65-51.03Q19.34-49.79 17.24-49.6L17.24-49.6Q26.35-46.69 27.9-42.22L27.9-42.22Q28.77-39.68 26.85-38.13L26.85-38.13Q24.92-36.58 22.69-37.94L22.69-37.94Q22.32-38.13 22.01-38.44L22.01-38.44Q20.52-43.65 16.68-48.42L16.68-48.42Q14.07-42.97 9.86-37.88L9.86-37.88 23.31-37.88 23.31-36.08 9.61-36.08 9.3-37.2Q7.44-35.03 5.95-33.6L5.95-33.6 11.66-31.37 25.73-31.37 25.73-15Q25.67-14.57 23.81-13.89L23.81-13.89Q21.95-13.27 20.52-13.27L20.52-13.27 19.47-13.27 19.47-15.13 11.41-15.13 11.41-3.97Q13.64-4.71 18.72-6.45L18.72-6.45Q17.67-9.86 16.55-12.21ZM49.66-30.44L49.66-30.44 39.87-30.44Q41.48-20.96 45.51-14.45L45.51-14.45Q48.48-21.51 49.66-30.44ZM36.33-32.18L57.16-32.18 57.16-29.2Q54.81-17.05 49.41-9.36L49.41-9.36Q53.94-4.84 60.33-2.17L60.33-2.17 60.2-1.36Q55.06 0.74 54.37 5.39L54.37 5.39Q48.79 1.43 45.51-4.59L45.51-4.59Q38.75 2.11 28.52 5.52L28.52 5.52 28.09 4.77Q37.57-0.37 43.03-9.61L43.03-9.61Q39.68-18.17 38.56-30.44L38.56-30.44 36.33-30.44 36.33-29.57Q36.33-25.42 36.21-22.44L36.21-22.44Q36.08-19.53 35.4-15.25L35.4-15.25Q34.78-10.97 33.54-7.69L33.54-7.69Q32.36-4.4 30.07-0.81L30.07-0.81Q27.84 2.79 24.61 5.58L24.61 5.58 23.87 5.08Q27.53-1.74 28.58-10.04L28.58-10.04Q29.7-18.35 29.7-29.57L29.7-29.57 29.7-49.41 37.39-46.62 60.57-46.62 60.57-44.83 36.33-44.83 36.33-32.18Z"
                            transform="translate(-1.3600000143051147, 53.06999969482422)"></path>
                    </g>
                </g>
            </g>
        </g>
    </mask>
</svg>