
<svg width="400px" height="400px" viewBox="0 0 400 400" version="1.1" xmlns="http://www.w3.org/2000/svg" xmlns:xlink="http://www.w3.org/1999/xlink">
    <defs>
        <rect id="path-79q3m0fs6u-1" x="0" y="0" width="400" height="400"></rect>
    </defs>
    <g id="博客" stroke="none" stroke-width="1" fill="none" fill-rule="evenodd">
        <g id="画板" transform="translate(-235.000000, -175.000000)">
            <g id="编组" transform="translate(435.000000, 375.000000) scale(-1, 1) translate(-435.000000, -375.000000) translate(235.000000, 175.000000)">
                <mask id="mask-79q3m0fs6u-2" fill="white">
                    <use xlink:href="#path-79q3m0fs6u-1"></use>
                </mask>
                <g id="矩形"></g>
                <g mask="url(#mask-79q3m0fs6u-2)">
                    <g transform="translate(66.829281, 0.000485)">
                        <g transform="translate(82.250894, 319.480780)" fill="#8F8F8F" fill-rule="nonzero" id="路径">
                            <g>
                                <path d="M0,30.9086869 C0,30.9086869 114.030086,31.9196763 114.030086,31.9196763 C114.030086,31.9196763 116.229089,3.20996748 116.229089,3.20996748 C116.229089,3.20996748 20.0600129,0 20.0600129,0 C20.0600129,0 0,30.9086869 0,30.9086869 Z"></path>
                            </g>
                        </g>
                        <g transform="translate(159.670328, 118.949559)" fill="#C4C4C4" fill-rule="nonzero" id="路径">
                            <path d="M0,24.4599188 C0,24.4599188 35.730084,0 35.730084,0 C35.730084,0 68.370161,5.58998159 68.370161,5.58998159 C68.370161,5.58998159 28.5000674,57.0698101 28.5000674,57.0698101 C28.5000674,57.0698101 0,24.4599188 0,24.4599188 Z"></path>
                        </g>
                        <g transform="translate(195.400213, 70.209458)" fill="#9DA0A1" fill-rule="nonzero" id="路径">
                            <path d="M32.6401371,54.3299008 C32.6401371,54.3299008 36.0701519,9.18998344 36.0701519,9.18998344 C36.0701519,9.18998344 23.460099,0 23.460099,0 C23.460099,0 0,48.739911 0,48.739911 C0,48.739911 32.6401371,54.3299008 32.6401371,54.3299008 Z"></path>
                        </g>
                        <g transform="translate(189.980026, 12.449475)" fill-rule="nonzero" id="路径">
                            <g fill="#EBEBEB">
                                <path d="M26.1811024,27.4299462 C26.1811024,27.4299462 15.761062,0 15.761062,0 C15.761062,0 5.52102142,2.81999413 5.52102142,2.81999413 C5.52102142,2.81999413 10.741043,30.4699406 10.741043,30.4699406 C10.741043,30.4699406 0,69.3898643 0,69.3898643 C0,69.3898643 8.86103459,76.7198498 8.86103459,76.7198498 C8.86103459,76.7198498 29.8101166,70.9498607 29.8101166,70.9498607 C29.8101166,70.9498607 50.7501977,65.1798716 50.7501977,65.1798716 C50.7501977,65.1798716 54.6112128,54.3398929 54.6112128,54.3398929 C54.6112128,54.3398929 26.1811024,27.4299462 26.1811024,27.4299462 Z"></path>
                            </g>
                            <g transform="translate(3.659011, 40.689920)" fill="#785D87">
                                <path d="M47.2221841,14.5499721 C47.2221841,14.5499721 31.8401242,0 31.8401242,0 C31.8401242,0 5.48102226,7.68998535 5.48102226,7.68998535 C5.48102226,7.68998535 0,27.5499468 0,27.5499468 C0,27.5499468 5.96002421,32.4899375 5.96002421,32.4899375 C5.96002421,32.4899375 44.6201747,21.8299578 44.6201747,21.8299578 C44.6201747,21.8299578 47.2221841,14.5499721 47.2221841,14.5499721 Z"></path>
                            </g>
                            <g transform="translate(10.482049, 58.336885)" fill="#A687B9">
                                <g transform="translate(0.019998, 5.178991)">
                                    <path d="M0,3.70099279 C0,3.70099279 1.71800681,0 1.71800681,0 C1.71800681,0 5.41802133,1.71699674 5.41802133,1.71699674 C5.41802133,1.71699674 3.70101452,5.41798952 3.70101452,5.41798952 C3.70101452,5.41798952 0,3.70099279 0,3.70099279 Z"></path>
                                </g>
                                <g transform="translate(0.000000, 0.422996)">
                                    <path d="M0,1.59599686 C0,1.59599686 0.742002935,0 0.742002935,0 C0.742002935,0 2.33800917,0.741998578 2.33800917,0.741998578 C2.33800917,0.741998578 1.59600623,2.33799544 1.59600623,2.33799544 C1.59600623,2.33799544 0,1.59599686 0,1.59599686 Z"></path>
                                </g>
                                <g transform="translate(6.706020, 5.168989)">
                                    <path d="M0,1.59599686 C0,1.59599686 0.742002935,0 0.742002935,0 C0.742002935,0 2.33800917,0.741998578 2.33800917,0.741998578 C2.33800917,0.741998578 1.59600623,2.33799544 1.59600623,2.33799544 C1.59600623,2.33799544 0,1.59599686 0,1.59599686 Z"></path>
                                </g>
                                <g transform="translate(6.698024, 0.000000)">
                                    <path d="M0,1.59599686 C0,1.59599686 0.741002914,0 0.741002914,0 C0.741002914,0 2.33800917,0.741998578 2.33800917,0.741998578 C2.33800917,0.741998578 1.59600623,2.33799544 1.59600623,2.33799544 C1.59600623,2.33799544 0,1.59599686 0,1.59599686 Z"></path>
                                </g>
                            </g>
                            <g transform="translate(23.959111, 14.559972)" fill="#DFBCA4">
                                <path d="M0,15.2499698 C0,15.2499698 6.59102528,0 6.59102528,0 C6.59102528,0 21.351083,22.3699557 21.351083,22.3699557 C21.351083,22.3699557 19.7800768,29.4899415 19.7800768,29.4899415 C19.7800768,29.4899415 11.5210446,26.2299478 11.5210446,26.2299478 C11.5210446,26.2299478 0,15.2499698 0,15.2499698 Z"></path>
                            </g>
                            <g transform="translate(13.880054, 14.559969)" fill="#C3977A">
                                <path d="M0,12.6899754 C0,12.6899754 10.8100423,29.2899431 10.8100423,29.2899431 C10.8100423,29.2899431 21.6000845,26.2299487 21.6000845,26.2299487 C21.6000845,26.2299487 16.670065,0 16.670065,0 C16.670065,0 0,12.6899754 0,12.6899754 Z"></path>
                            </g>
                        </g>
                        <g transform="translate(47.050716, 330.359506)" fill-rule="nonzero" id="路径">
                            <g opacity="0.1" transform="translate(0.000000, 48.350019)" fill="#2B2B2B">
                                <path d="M0,13.6000004 C0,13.6000004 112.619997,21.2900009 112.619997,21.2900009 C112.619997,21.2900009 215.039993,9.64000046 215.039993,9.64000046 C215.039993,9.64000046 114.779997,0 114.779997,0 C114.779997,0 0,13.6000004 0,13.6000004 Z"></path>
                            </g>
                            <g transform="translate(69.060006, 38.770009)" fill="#584164">
                                <path d="M5.65000013,24.2399998 C5.65000013,24.2399998 11.2200003,15.1789999 11.2200003,15.1789999 C11.2200003,15.1789999 5.24000013,0 5.24000013,0 C5.24000013,0 0,7.75999975 0,7.75999975 C0,7.75999975 1.81000018,24.2399998 1.81000018,24.2399998 C1.81000018,24.2399998 5.65000013,24.2399998 5.65000013,24.2399998 Z"></path>
                            </g>
                            <g transform="translate(61.339995, 0.000000)" fill="#C3977A">
                                <path d="M26.9899998,37.6699991 C26.9899998,37.6699991 28.4200001,0 28.4200001,0 C28.4200001,0 0,0 0,0 C0,0 12.96,38.7699995 12.96,38.7699995 C12.96,38.7699995 22.6899996,47.5099983 22.6899996,47.5099983 C22.6899996,47.5099983 26.9899998,37.6699991 26.9899998,37.6699991 Z"></path>
                            </g>
                            <g transform="translate(70.900004, 28.609003)" fill="#8A6651">
                                <path d="M17.6299992,3.76099998 C17.6299992,3.76099998 0,0 0,0 C0,0 2.12999964,6.36100006 2.12999964,6.36100006 C2.12999964,6.36100006 17.6299992,3.76099998 17.6299992,3.76099998 Z"></path>
                            </g>
                            <g transform="translate(74.300010, 37.670021)" fill="#785D87">
                                <path d="M0,1.10000038 C0,1.10000038 14.0300003,0 14.0300003,0 C14.0300003,0 27.5300007,25.3400002 27.5300007,25.3400002 C27.5300007,25.3400002 0.410000801,25.3400002 0.410000801,25.3400002 C0.410000801,25.3400002 0,1.10000038 0,1.10000038 Z"></path>
                            </g>
                        </g>
                        <g transform="translate(119.630397, 143.409659)">
                            <g transform="translate(51.180268, 92.149874)" fill="#EBEBEB" fill-rule="nonzero" id="路径">
                                <path d="M0,26.3699603 C0,26.3699603 58.1403076,85.3198748 58.1403076,85.3198748 C58.1403076,85.3198748 13.5300714,0 13.5300714,0 C13.5300714,0 3.52101857,7.03999061 3.52101857,7.03999061 C3.52101857,7.03999061 0,26.3699603 0,26.3699603 Z"></path>
                            </g>
                            <g transform="translate(54.700296, 114.799831)" fill="#C4C4C4" fill-rule="nonzero" id="路径">
                                <path d="M0,0 C0,0 54.6202884,62.6699102 54.6202884,62.6699102 C54.6202884,62.6699102 21.9501157,93.189866 21.9501157,93.189866 C21.9501157,93.189866 5.06002629,46.599933 5.06002629,46.599933 C5.06002629,46.599933 0,0 0,0 Z"></path>
                            </g>
                            <g transform="translate(34.280186, 39.769957)" fill="#8F8F8F" fill-rule="nonzero" id="路径">
                                <path d="M0,9.23998624 C0,9.23998624 20.4201078,75.0298889 20.4201078,75.0298889 C20.4201078,75.0298889 30.4301606,52.3799225 30.4301606,52.3799225 C30.4301606,52.3799225 33.8001784,0 33.8001784,0 C33.8001784,0 0,9.23998624 0,9.23998624 Z"></path>
                            </g>
                            <g transform="translate(18.974109, 0.000000)" fill="#DDDDDC" fill-rule="nonzero" id="路径">
                                <path d="M0,6.74199071 C0,6.74199071 21.0661116,53.5399225 21.0661116,53.5399225 C21.0661116,53.5399225 49.1062593,39.7699422 49.1062593,39.7699422 C49.1062593,39.7699422 49.5662627,32.6099529 49.5662627,32.6099529 C49.5662627,32.6099529 21.0661116,0 21.0661116,0 C21.0661116,0 0,6.74199071 0,6.74199071 Z"></path>
                            </g>
                            <g transform="translate(0.000000, 10.297989)" fill="#584164" fill-rule="nonzero" id="路径">
                                <path d="M24.294128,0 C24.294128,0 5.00702555,21.6479683 0,26.3209616 C5.4500287,34.9499486 10.9010568,43.5789367 16.352086,52.2079237 C24.3321283,49.5469283 32.3141705,46.8869324 40.2942123,44.2269345 C37.561198,33.7039511 24.294128,0 24.294128,0 Z"></path>
                            </g>
                            <g transform="translate(13.799072, 6.875993)" fill="#90759F" fill-rule="nonzero" id="路径">
                                <g>
                                    <path d="M5.27602799,0 C5.27602799,0 20.976111,34.4589511 20.976111,34.4589511 C20.976111,34.4589511 0,15.2239784 0,15.2239784 C0,15.2239784 5.27602799,0 5.27602799,0 Z"></path>
                                </g>
                            </g>
                            <g transform="translate(15.950093, 53.569931)" fill="#584164" fill-rule="nonzero" id="路径">
                                <path d="M28.9701538,20.3699701 C28.9701538,20.3699701 24.1001276,0 24.1001276,0 C24.1001276,0 0,8.06998788 0,8.06998788 C0,8.06998788 3.89002096,56.9309164 3.89002096,56.9309164 C3.89002096,56.9309164 4.1600219,57.2299157 4.1600219,57.2299157 C4.1600219,57.2299157 38.7502054,61.2299099 38.7502054,61.2299099 C38.7502054,61.2299099 28.9701538,20.3699701 28.9701538,20.3699701 Z"></path>
                            </g>
                            <g transform="translate(18.990110, 6.820003)" fill="#EBEBEB" fill-rule="nonzero" id="路径">
                                <path d="M0,0 C0,0 21.1201128,46.7399332 21.1201128,46.7399332 C21.1201128,46.7399332 27.100145,43.5319378 27.100145,43.5319378 C27.100145,43.5319378 37.8302023,12.3799829 37.8302023,12.3799829 C37.8302023,12.3799829 0,0 0,0 Z"></path>
                            </g>
                        </g>
                        <g transform="translate(98.737713, 247.518516)">
                            <g transform="translate(65.683004, 77.400993)" fill-rule="nonzero" id="路径">
                                <g transform="translate(17.750007, 36.120002)" fill="#584164">
                                    <path d="M8.8900001,24.3500004 C8.8900001,24.3500004 12.0100002,12.3710002 12.0100002,12.3710002 C12.0100002,12.3710002 7.80000007,4.51999998 7.80000007,4.51999998 C7.80000007,4.51999998 2.77000022,0 2.77000022,0 C2.77000022,0 0,9.3210001 0,9.3210001 C0,9.3210001 4.3900001,24.3500004 4.3900001,24.3500004 C4.3900001,24.3500004 8.8900001,24.3500004 8.8900001,24.3500004 Z"></path>
                                </g>
                                <g transform="translate(0.000000, 5.440020)" fill="#C3977A">
                                    <path d="M33.3699989,27.6700006 C33.3699989,27.6700006 26.848999,0 26.848999,0 C26.848999,0 0,0 0,0 C0,0 20.5189996,30.6800003 20.5189996,30.6800003 C20.5189996,30.6800003 30.3199997,42.5600014 30.3199997,42.5600014 C30.3199997,42.5600014 33.3699989,27.6700006 33.3699989,27.6700006 Z"></path>
                                </g>
                                <g transform="translate(0.000005, 0.000000)" fill="#8A6651">
                                    <path d="M26.8500004,5.44000006 C26.8500004,5.44000006 6.39000034,0 6.39000034,0 C6.39000034,0 0,5.44000006 0,5.44000006 C0,5.44000006 5.37100029,13.46 5.37100029,13.46 C5.37100029,13.46 26.8500004,5.44000006 26.8500004,5.44000006 Z"></path>
                                </g>
                                <g transform="translate(20.519997, 33.109997)" fill="#785D87">
                                    <path d="M0,3.01000023 C0,3.01000023 12.8510003,0 12.8510003,0 C12.8510003,0 40.9500008,27.3600006 40.9500008,27.3600006 C40.9500008,27.3600006 14.5110002,27.3600006 14.5110002,27.3600006 C14.5110002,27.3600006 0,3.01000023 0,3.01000023 Z"></path>
                                </g>
                            </g>
                            <g fill-rule="nonzero" id="路径">
                                <g fill="#785D87">
                                    <path d="M9.65399933,3.06999969 C9.65399933,3.06999969 52.9639988,0 52.9639988,0 C52.9639988,0 73.4039993,18.2310009 73.4039993,18.2310009 C73.4039993,18.2310009 92.5319977,82.8420029 92.5319977,82.8420029 C92.5319977,82.8420029 0,82.5440025 0,82.5440025 C0,82.5440025 9.65399933,3.06999969 9.65399933,3.06999969 Z"></path>
                                </g>
                                <g transform="translate(40.723013, 5.201004)" fill="#90759F">
                                    <path d="M0,1.45999908 C0,1.45999908 51.8100014,77.3799973 51.8100014,77.3799973 C51.8100014,77.3799973 34.8700008,5.48999786 34.8700008,5.48999786 C34.8700008,5.48999786 18.0700006,0 18.0700006,0 C18.0700006,0 0,1.45999908 0,1.45999908 Z"></path>
                                </g>
                            </g>
                        </g>
                        <g transform="translate(0.000000, 0.000000)">
                            <g transform="translate(2.870008, 120.439688)" fill-rule="nonzero" id="路径">
                                <g transform="translate(0.000000, 42.169896)" fill="#95627B">
                                    <path d="M31.8300957,31.0999201 C31.8300957,31.0999201 0,8.91997706 0,8.91997706 C0,8.91997706 29.7200887,0 29.7200887,0 C29.7200887,0 40.8901224,4.06999015 40.8901224,4.06999015 C40.8901224,4.06999015 31.8300957,31.0999201 31.8300957,31.0999201 Z"></path>
                                </g>
                                <g transform="translate(27.270084, 0.000000)" fill="#532F42">
                                    <path d="M54.5101623,19.2199478 C54.5101623,19.2199478 4.56001318,73.2698076 4.56001318,73.2698076 C4.56001318,73.2698076 0,0 0,0 C0,0 54.5101623,19.2199478 54.5101623,19.2199478 Z"></path>
                                </g>
                            </g>
                            <g transform="translate(0.000002, 43.069885)" fill="#B3879D" fill-rule="nonzero" id="路径">
                                <path d="M44.3701324,0 C44.3701324,0 30.1400901,36.1799084 30.1400901,36.1799084 C30.1400901,36.1799084 0,76.2298067 0,76.2298067 C0,76.2298067 10.0200296,8.88997836 10.0200296,8.88997836 C10.0200296,8.88997836 44.3701324,0 44.3701324,0 Z"></path>
                            </g>
                            <g transform="translate(0.000002, 43.069885)" fill="#95627B" fill-rule="nonzero" id="路径">
                                <path d="M44.3701324,0 C44.3701324,0 0,76.2298067 0,76.2298067 C0,76.2298067 42.3301273,63.2298383 42.3301273,63.2298383 C42.3301273,63.2298383 44.3701324,0 44.3701324,0 Z"></path>
                            </g>
                            <g transform="translate(0.000000, 103.829734)" fill="#734D5F" fill-rule="nonzero" id="路径">
                                <path d="M0,15.4699611 C0,15.4699611 30.140091,0 30.140091,0 C30.140091,0 52.8801601,8.04998038 52.8801601,8.04998038 C52.8801601,8.04998038 73.9002238,20.519948 73.9002238,20.519948 C73.9002238,20.519948 84.6502562,35.8299094 84.6502562,35.8299094 C84.6502562,35.8299094 0,15.4699611 0,15.4699611 Z"></path>
                            </g>
                            <g transform="translate(30.140092, 98.399749)" fill="#532F42" fill-rule="nonzero" id="路径">
                                <path d="M0,5.42998534 C0,5.42998534 40.7001232,26.9699297 40.7001232,26.9699297 C40.7001232,26.9699297 23.3600706,0 23.3600706,0 C23.3600706,0 0,5.42998534 0,5.42998534 Z"></path>
                            </g>
                            <g transform="translate(50.800160, 3.239990)" fill="#DFBCA4" fill-rule="nonzero" id="路径">
                                <path d="M91.5802735,19.1199534 C91.5802735,19.1199534 98.8102948,24.2399391 98.8102948,24.2399391 C98.8102948,24.2399391 128.590383,107.129727 128.590383,107.129727 C128.590383,107.129727 95.8702873,121.429691 95.8702873,121.429691 C95.8702873,121.429691 82.8492483,162.482583 82.8492483,162.482583 C82.8492483,162.482583 51.5101533,145.009628 51.5101533,145.009628 C51.5101533,145.009628 11.5200313,96.9597527 11.5200313,96.9597527 C11.5200313,96.9597527 0,30.2599241 0,30.2599241 C0,30.2599241 66.790199,0 66.790199,0 C66.790199,0 91.5802735,19.1199534 91.5802735,19.1199534 Z"></path>
                            </g>
                            <g transform="translate(50.800160, 45.969879)" fill="#C3977A" fill-rule="nonzero" id="路径">
                                <path d="M83.6782531,119.541691 C83.6782531,119.541691 87.0252633,108.731722 87.0252633,108.731722 C87.0252633,108.731722 70.7802155,93.8597585 70.7802155,93.8597585 C70.7802155,93.8597585 37.5601148,10.369976 37.5601148,10.369976 C37.5601148,10.369976 25.4000779,0 25.4000779,0 C25.4000779,0 0,58.6598503 0,58.6598503 C0,58.6598503 20.0400612,79.3997967 20.0400612,79.3997967 C20.0400612,79.3997967 25.5600783,82.4297895 25.5600783,82.4297895 C25.5600783,82.4297895 33.8501041,93.6897607 33.8501041,93.6897607 C33.8501041,93.6897607 51.5101566,111.969712 51.5101566,111.969712 C51.5101566,111.969712 65.5701989,119.479695 65.5701989,119.479695 C65.5701989,119.479695 83.6782531,119.541691 83.6782531,119.541691 Z"></path>
                            </g>
                            <g transform="translate(108.390329, 124.669677)" fill="#8A6651" fill-rule="nonzero" id="路径">
                                <path d="M0,16.8099563 C0,16.8099563 28.8100861,29.969922 28.8100861,29.969922 C28.8100861,29.969922 29.4380883,30.1299224 29.4380883,30.1299224 C29.4380883,30.1299224 38.2801139,0 38.2801139,0 C38.2801139,0 0,16.8099563 0,16.8099563 Z"></path>
                            </g>
                            <g transform="translate(47.050137, 0.000000)" fill="#B3879D" fill-rule="nonzero" id="路径">
                                <path d="M29.1500892,45.9698807 C29.1500892,45.9698807 65.4801984,33.0099146 65.4801984,33.0099146 C65.4801984,33.0099146 77.0102338,20.2299478 77.0102338,20.2299478 C77.0102338,20.2299478 71.090214,0 71.090214,0 C71.090214,0 0,31.6599182 0,31.6599182 C0,31.6599182 12.6100385,50.5698692 12.6100385,50.5698692 C12.6100385,50.5698692 29.1500892,45.9698807 29.1500892,45.9698807 Z"></path>
                            </g>
                            <g transform="translate(70.840212, 117.139691)" fill="#8A6651" fill-rule="nonzero" id="路径">
                                <path d="M0,8.22997902 C0,8.22997902 5.920018,0 5.920018,0 C5.920018,0 13.810042,22.5199424 13.810042,22.5199424 C13.810042,22.5199424 0,8.22997902 0,8.22997902 Z"></path>
                            </g>
                            <g transform="translate(50.800147, 87.229778)" fill="#DFBCA4" fill-rule="nonzero" id="路径">
                                <path d="M20.0400602,38.139901 C20.0400602,38.139901 29.6000894,24.8299359 29.6000894,24.8299359 C29.6000894,24.8299359 7.54002264,0 7.54002264,0 C7.54002264,0 0,17.3999548 0,17.3999548 C0,17.3999548 20.0400602,38.139901 20.0400602,38.139901 Z"></path>
                            </g>
                            <g transform="translate(55.150174, 96.439755)" fill="#8A6651" fill-rule="nonzero" id="路径">
                                <path d="M5.59001673,0 C5.59001673,0 14.2400426,10.5799726 14.2400426,10.5799726 C14.2400426,10.5799726 0,7.86997958 0,7.86997958 C0,7.86997958 5.59001673,0 5.59001673,0 Z"></path>
                            </g>
                            <g transform="translate(72.270214, 108.049722)" fill="#FFFFFF" fill-rule="nonzero" id="路径">
                                <path d="M13.5700405,9.47997556 C13.5700405,9.47997556 9.23002755,13.8399644 9.23002755,13.8399644 C9.23002755,13.8399644 0,4.58998831 0,4.58998831 C0,4.58998831 4.57001368,0 4.57001368,0 C4.57001368,0 13.5700405,9.47997556 13.5700405,9.47997556 Z"></path>
                            </g>
                            <g transform="translate(112.530344, 0.000000)" fill="#95627B" fill-rule="nonzero" id="路径">
                                <path d="M5.61001749,0 C5.61001749,0 0,33.0099132 0,33.0099132 C0,33.0099132 29.8500902,22.3599415 29.8500902,22.3599415 C29.8500902,22.3599415 5.61001749,0 5.61001749,0 Z"></path>
                            </g>
                            <g transform="translate(30.140094, 31.659922)" fill="#734D5F" fill-rule="nonzero" id="路径">
                                <path d="M28.2000854,55.5698563 C28.2000854,55.5698563 46.7001412,76.3898023 46.7001412,76.3898023 C46.7001412,76.3898023 54.4701651,64.9198326 54.4701651,64.9198326 C54.4701651,64.9198326 34.8401054,40.219896 34.8401054,40.219896 C34.8401054,40.219896 46.0601399,14.3099625 46.0601399,14.3099625 C46.0601399,14.3099625 16.9100517,0 16.9100517,0 C16.9100517,0 0,72.169812 0,72.169812 C0,72.169812 14.220043,72.7198136 14.220043,72.7198136 C14.220043,72.7198136 20.660063,72.969813 20.660063,72.969813 C20.660063,72.969813 28.2000854,55.5698563 28.2000854,55.5698563 Z"></path>
                            </g>
                        </g>
                        <g transform="translate(77.750440, 157.939778)">
                            <g transform="translate(0.000000, 0.000004)" fill="#DDDDDC" fill-rule="nonzero" id="路径">
                                <path d="M24.5601445,0 C24.5601445,0 48.7802869,30.8899588 48.7802869,30.8899588 C52.6693098,36.4369514 56.5593341,41.9839436 60.448357,47.5319365 C60.8683596,63.7679149 61.2893616,80.0028932 61.7103636,96.2398714 C51.3873027,95.0788736 41.0642418,93.9178759 30.7411811,92.7568781 C20.4941205,70.0039077 10.2470603,47.2519369 0,24.4999659 C0,24.4999659 24.5601445,0 24.5601445,0 Z"></path>
                            </g>
                            <g transform="translate(19.020110, 0.000000)" fill="#EBEBEB" fill-rule="nonzero" id="路径">
                                <path d="M5.54003269,0 C5.54003269,0 0,30.1599602 0,30.1599602 C0,30.1599602 29.760176,30.8899588 29.760176,30.8899588 C29.760176,30.8899588 21.2801259,16.4199781 21.2801259,16.4199781 C21.2801259,16.4199781 5.54003269,0 5.54003269,0 Z"></path>
                            </g>
                            <g transform="translate(57.830347, 39.039955)" fill="#584164" fill-rule="nonzero" id="路径">
                                <path d="M28.9701714,20.3699731 C28.9701714,20.3699731 24.1001423,0 24.1001423,0 C24.1001423,0 0,8.06998909 0,8.06998909 C0,8.06998909 3.89002332,56.930925 3.89002332,56.930925 C3.89002332,56.930925 4.16002442,57.2299244 4.16002442,57.2299244 C4.16002442,57.2299244 38.7502289,61.2299191 38.7502289,61.2299191 C38.7502289,61.2299191 28.9701714,20.3699731 28.9701714,20.3699731 Z"></path>
                            </g>
                            <g transform="translate(29.180169, 25.829968)" fill="#EBEBEB" fill-rule="nonzero" id="路径">
                                <path d="M3.1300186,0 C3.1300186,0 0,14.6599805 0,14.6599805 C0,14.6599805 25.2601494,26.8899641 25.2601494,26.8899641 C25.2601494,26.8899641 34.2502023,22.3999702 34.2502023,22.3999702 C34.2502023,22.3999702 18.6021099,3.63099479 18.6021099,3.63099479 C18.6021099,3.63099479 3.1300186,0 3.1300186,0 Z"></path>
                            </g>
                            <g fill="#DDDDDC" fill-rule="nonzero" id="路径">
                                <path d="M24.5601445,0 C24.5601445,0 48.7802869,30.8899588 48.7802869,30.8899588 C48.7802869,30.8899588 54.4403202,52.7199281 54.4403202,52.7199281 C54.4403202,52.7199281 61.7103636,96.23987 61.7103636,96.23987 C61.7103636,96.23987 57.8303415,204.790731 57.8303415,204.790731 C57.8303415,204.790731 0,192.449744 0,192.449744 C0,192.449744 37.3402203,89.5798794 37.3402203,89.5798794 C37.3402203,89.5798794 0,24.4999678 0,24.4999678 C0,24.4999678 24.5601445,0 24.5601445,0 Z"></path>
                            </g>
                            <g transform="translate(0.000000, 89.579873)" fill="#C4C4C4" fill-rule="nonzero" id="路径">
                                <path d="M61.7103636,6.6599911 C61.7103636,6.6599911 0,102.869868 0,102.869868 C0,102.869868 30.6401805,3.06999566 30.6401805,3.06999566 C30.6401805,3.06999566 47.2502791,0 47.2502791,0 C47.2502791,0 61.7103636,6.6599911 61.7103636,6.6599911 Z"></path>
                            </g>
                            <g transform="translate(20.340118, 48.259944)" fill="#8F8F8F" fill-rule="nonzero" id="路径">
                                <path d="M43.0902547,0 C43.0902547,0 18.280108,4.46099458 18.280108,4.46099458 C18.280108,4.46099458 0,21.4609715 0,21.4609715 C0,21.4609715 10.300061,44.3899411 10.300061,44.3899411 C10.300061,44.3899411 41.3702452,47.9799365 41.3702452,47.9799365 C41.3702452,47.9799365 43.0902547,0 43.0902547,0 Z"></path>
                            </g>
                            <g transform="translate(19.020110, 0.000000)" fill="#EBEBEB" fill-rule="nonzero" id="路径">
                                <path d="M5.54003269,0 C5.54003269,0 0,30.1599602 0,30.1599602 C0,30.1599602 29.760176,30.8899588 29.760176,30.8899588 C29.760176,30.8899588 21.2801259,16.4199781 21.2801259,16.4199781 C21.2801259,16.4199781 5.54003269,0 5.54003269,0 Z"></path>
                            </g>
                            <g transform="translate(24.560152, 0.000006)" fill="#90759F" fill-rule="nonzero" id="路径">
                                <path d="M31.4801855,7.50999012 C31.4801855,7.50999012 25.2201483,18.0799762 25.2201483,18.0799762 C25.2201483,18.0799762 17.3201021,22.0899711 17.3201021,22.0899711 C17.3201021,22.0899711 0,0 0,0 C0,0 31.4801855,7.50999012 31.4801855,7.50999012 Z"></path>
                            </g>
                            <g transform="translate(41.880253, 7.509995)" fill="#584164" fill-rule="nonzero" id="路径">
                                <path d="M14.2000837,0.00999926207 C14.2000837,0.00999926207 14.1600835,0 14.1600835,0 C14.1600835,0 0,14.5799805 0,14.5799805 C0,14.5799805 6.90004062,23.3799684 6.90004062,23.3799684 C6.90004062,23.3799684 16.650098,15.1099798 16.650098,15.1099798 C16.650098,15.1099798 14.2000837,0.00999926207 14.2000837,0.00999926207 Z"></path>
                            </g>
                            <g transform="translate(16.911097, 25.777968)" fill="#EBEBEB" fill-rule="nonzero" id="路径">
                                <path d="M3.13001765,0 C3.13001765,0 0,14.6599805 0,14.6599805 C0,14.6599805 25.2601485,26.8899641 25.2601485,26.8899641 C25.2601485,26.8899641 45.2812667,21.8219709 45.2812667,21.8219709 C45.2812667,21.8219709 30.2951781,3.07199551 30.2951781,3.07199551 C30.2951781,3.07199551 3.13001765,0 3.13001765,0 Z"></path>
                            </g>
                        </g>
                        <g transform="translate(50.800099, 37.309930)" fill-rule="nonzero">
                            <g transform="translate(87.731156, 48.449697)" fill="#8A6651" id="路径">
                                <path d="M11.620019,0 C11.620019,0 8.22901337,6.6299688 8.22901337,6.6299688 C8.22901337,6.6299688 0,4.20998015 0,4.20998015 C0,4.20998015 11.620019,0 11.620019,0 Z"></path>
                            </g>
                            <g transform="translate(46.790081, 14.429861)" fill="#734D5F" id="路径">
                                <path d="M0,8.84995858 C0,8.84995858 6.07001038,7.72996374 6.07001038,7.72996374 C6.07001038,7.72996374 10.0600169,2.75998719 10.0600169,2.75998719 C10.0600169,2.75998719 18.7800315,2.75998719 18.7800315,2.75998719 C18.7800315,2.75998719 7.11001205,0 7.11001205,0 C7.11001205,0 0,8.84995858 0,8.84995858 Z"></path>
                            </g>
                            <g transform="translate(85.430087, 0.000000)" fill="#734D5F" id="路径">
                                <path d="M0,11.5198026 C0,11.5198026 4.67104401,9.95982895 4.67104401,9.95982895 C4.67104401,9.95982895 7.79007363,2.59995548 7.79007363,2.59995548 C7.79007363,2.59995548 14.5301374,2.59995548 14.5301374,2.59995548 C14.5301374,2.59995548 5.50005197,0 5.50005197,0 C5.50005197,0 0,11.5198026 0,11.5198026 Z"></path>
                            </g>
                            <g transform="translate(70.080043, 63.699720)" id="路径">
                                <g fill="#584164">
                                    <path d="M0,7.6498236 C0,7.6498236 12.0201163,4.42989786 12.0201163,4.42989786 C12.0201163,4.42989786 22.620219,7.6498236 22.620219,7.6498236 C22.620219,7.6498236 16.320158,0.809981255 16.320158,0.809981255 C16.320158,0.809981255 12.290119,2.00995362 12.290119,2.00995362 C12.290119,2.00995362 10.1400983,0 10.1400983,0 C10.1400983,0 0,7.6498236 0,7.6498236 Z"></path>
                                </g>
                                <g transform="translate(0.640009, 4.429901)" fill="#90759F">
                                    <path d="M0,3.0499297 C0,3.0499297 6.55006288,5.35987647 6.55006288,5.35987647 C6.55006288,5.35987647 18.220175,2.07995205 18.220175,2.07995205 C18.220175,2.07995205 11.3801094,0 11.3801094,0 C11.3801094,0 0,3.0499297 0,3.0499297 Z"></path>
                                </g>
                            </g>
                            <g transform="translate(93.410156, 33.649773)" fill="#C3977A" id="路径">
                                <path d="M15.1000252,0 C15.1000252,0 3.33000587,8.2899608 3.33000587,8.2899608 C3.33000587,8.2899608 0,2.71998718 0,2.71998718 C0,2.71998718 15.1000252,0 15.1000252,0 Z"></path>
                            </g>
                            <g transform="translate(56.180099, 39.589739)" fill="#C3977A" id="路径">
                                <path d="M0,13.069938 C0,13.069938 29.6300478,8.25996085 29.6300478,8.25996085 C29.6300478,8.25996085 29.480048,0 29.480048,0 C29.480048,0 0,13.069938 0,13.069938 Z"></path>
                            </g>
                            <g transform="translate(49.270093, 25.679807)" fill="#C3977A" id="路径">
                                <path d="M0,7.93996255 C0,7.93996255 24.9300413,7.73996345 24.9300413,7.73996345 C24.9300413,7.73996345 21.8600365,0 21.8600365,0 C21.8600365,0 0,7.93996255 0,7.93996255 Z"></path>
                            </g>
                            <g transform="translate(92.700160, 14.229862)" fill="#C3977A" id="路径">
                                <path d="M10.0300162,0 C10.0300162,0 3.17000505,10.9599483 3.17000505,10.9599483 C3.17000505,10.9599483 0,3.5499833 0,3.5499833 C0,3.5499833 10.0300162,0 10.0300162,0 Z"></path>
                            </g>
                            <g transform="translate(74.200127, 14.649857)" fill="#E8C9B6" id="路径">
                                <path d="M25.1500409,33.7998396 C25.1500409,33.7998396 13.530022,38.0098188 13.530022,38.0098188 C13.530022,38.0098188 0,4.19997902 0,4.19997902 C0,4.19997902 11.6100189,0 11.6100189,0 C11.6100189,0 25.1500409,33.7998396 25.1500409,33.7998396 Z"></path>
                            </g>
                            <g transform="translate(0.000000, 30.479783)" fill="#584164" id="路径">
                                <path d="M7.5400133,19.4399077 C7.5400133,19.4399077 3.55000698,28.6498643 3.55000698,28.6498643 C3.55000698,28.6498643 0,16.7199208 0,16.7199208 C0,16.7199208 42.2100703,0 42.2100703,0 C42.2100703,0 46.7900778,11.3099463 46.7900778,11.3099463 C46.7900778,11.3099463 7.5400133,19.4399077 7.5400133,19.4399077 Z"></path>
                            </g>
                            <g transform="translate(42.190076, 4.009908)" fill="#584164" id="形状">
                                <path d="M53.2510869,34.3998371 C53.2510869,34.3998371 82.421133,23.7898873 82.421133,23.7898873 C82.421133,23.7898873 73.0011194,0 73.0011194,0 C73.0011194,0 0,26.4698748 0,26.4698748 C0,26.4698748 9.63001498,50.2297623 9.63001498,50.2297623 C9.63001498,50.2297623 41.4300672,38.6798166 41.4300672,38.6798166 C41.4300672,38.6798166 33.9900551,19.8999056 33.9900551,19.8999056 C33.9900551,19.8999056 45.6210738,15.6199261 45.6210738,15.6199261 C45.6210738,15.6199261 53.2510869,34.3998371 53.2510869,34.3998371 Z M12.6710203,43.3997946 C12.6710203,43.3997946 7.08000965,29.6098598 7.08000965,29.6098598 C7.08000965,29.6098598 28.9400462,21.6798974 28.9400462,21.6798974 C28.9400462,21.6798974 34.4100554,35.4898321 34.4100554,35.4898321 C34.4100554,35.4898321 12.6710203,43.3997946 12.6710203,43.3997946 Z M75.4001216,20.6799021 C75.4001216,20.6799021 56.2800912,27.5798694 56.2800912,27.5798694 C56.2800912,27.5798694 50.6800826,13.7799346 50.6800826,13.7799346 C50.6800826,13.7799346 69.9301133,6.77996866 69.9301133,6.77996866 C69.9301133,6.77996866 75.4001216,20.6799021 75.4001216,20.6799021 Z"></path>
                            </g>
                        </g>
                        <g transform="translate(115.870161, 56.539679)">
                            <g transform="translate(0.000000, 13.319916)" fill="#2B2B2B" fill-rule="nonzero" id="路径">
                                <path d="M3.27000423,0 C5.07600658,0 6.54000847,1.46399125 6.54000847,3.26998047 C6.54000847,5.07596969 5.07600658,6.53996094 3.27000423,6.53996094 C1.46400189,6.53996094 0,5.07596969 0,3.26998047 C0,1.46399125 1.46400189,0 3.27000423,0 Z"></path>
                            </g>
                            <g transform="translate(35.990044, 0.000000)" fill="#2B2B2B" fill-rule="nonzero" id="路径">
                                <path d="M3.27000416,0 C5.07600646,0 6.5410084,1.46399125 6.5410084,3.26998047 C6.5410084,5.07596969 5.07600646,6.53996094 3.27000416,6.53996094 C1.46400177,6.53996094 0,5.07596969 0,3.26998047 C0,1.46399125 1.46400177,0 3.27000416,0 Z"></path>
                            </g>
                        </g>
                        <g transform="translate(77.750375, 134.719785)" fill-rule="nonzero" id="路径">
                            <g transform="translate(0.000000, 47.719875)" fill="#9DA0A1">
                                <path d="M0,0 C0,0 20.3300578,45.219882 20.3300578,45.219882 C20.3300578,45.219882 87.9902568,11.5299703 87.9902568,11.5299703 C87.9902568,11.5299703 68.920201,5.73998463 68.920201,5.73998463 C68.920201,5.73998463 48.7801423,6.38998444 48.7801423,6.38998444 C48.7801423,6.38998444 0,0 0,0 Z"></path>
                            </g>
                            <g transform="translate(48.780152, 0.000000)" fill="#C4C4C4">
                                <path d="M39.2001161,59.2498437 C39.2001161,59.2498437 33.1400979,8.68997761 33.1400979,8.68997761 C33.1400979,8.68997761 25.8310763,0 25.8310763,0 C25.8310763,0 16.9710504,0 16.9710504,0 C16.9710504,0 0,54.1098579 0,54.1098579 C0,54.1098579 39.2001161,59.2498437 39.2001161,59.2498437 Z"></path>
                            </g>
                        </g>
                        <g transform="translate(143.500284, 103.289600)" fill-rule="nonzero" id="路径">
                            <g transform="translate(0.000000, 5.619989)" fill="#C3977A">
                                <path d="M0,25.8099329 C0,25.8099329 7.85002319,0 7.85002319,0 C7.85002319,0 21.8600645,6.05998456 21.8600645,6.05998456 C21.8600645,6.05998456 28.6400843,17.4999542 28.6400843,17.4999542 C28.6400843,17.4999542 16.1700477,34.4999097 16.1700477,34.4999097 C16.1700477,34.4999097 0,25.8099329 0,25.8099329 Z"></path>
                            </g>
                            <g transform="translate(7.850026, 0.000000)" fill="#C3977A">
                                <path d="M0,5.61998551 C0,5.61998551 18.6500559,0 18.6500559,0 C18.6500559,0 28.0400841,7.07998164 28.0400841,7.07998164 C28.0400841,7.07998164 16.5700496,11.3099708 16.5700496,11.3099708 C16.5700496,11.3099708 0,5.61998551 0,5.61998551 Z"></path>
                            </g>
                            <g transform="translate(7.850030, 5.619989)" fill="#DFBCA4">
                                <path d="M0,0 C0,0 28.0400831,1.45999622 28.0400831,1.45999622 C28.0400831,1.45999622 29.8300884,14.2599629 29.8300884,14.2599629 C29.8300884,14.2599629 20.7900616,17.4999542 20.7900616,17.4999542 C20.7900616,17.4999542 0,0 0,0 Z"></path>
                            </g>
                        </g>
                    </g>
                </g>
            </g>
        </g>
    </g>
</svg>